<mxfile host="app.diagrams.net" modified="2024-05-10T08:28:23.447Z" agent="Mozilla/5.0 (Macintosh; Intel Mac OS X 10_15_7) AppleWebKit/537.36 (KHTML, like Gecko) Chrome/124.0.0.0 Safari/537.36" etag="3p_LyI_YryIEfb_I6Faw" version="24.3.1" type="github">
  <diagram name="第 1 页" id="l_sa22qsGaxzCNPG77M2">
    <mxGraphModel dx="1909" dy="836" grid="0" gridSize="10" guides="1" tooltips="1" connect="1" arrows="1" fold="1" page="0" pageScale="1" pageWidth="827" pageHeight="1169" math="0" shadow="0">
      <root>
        <mxCell id="0" />
        <mxCell id="1" parent="0" />
        <mxCell id="r4WHfZsrnxStwqEzmnqj-3" value="" style="rounded=1;whiteSpace=wrap;html=1;dashed=1;" vertex="1" parent="1">
          <mxGeometry x="-191" y="226" width="452" height="480" as="geometry" />
        </mxCell>
        <mxCell id="r4WHfZsrnxStwqEzmnqj-1" value="&lt;font style=&quot;font-size: 14px;&quot;&gt;dts-manager&lt;/font&gt;" style="rounded=1;whiteSpace=wrap;html=1;" vertex="1" parent="1">
          <mxGeometry x="78" y="263" width="120" height="60" as="geometry" />
        </mxCell>
        <mxCell id="r4WHfZsrnxStwqEzmnqj-6" value="&lt;font style=&quot;font-size: 14px;&quot;&gt;dts-manager&lt;/font&gt;" style="rounded=1;whiteSpace=wrap;html=1;" vertex="1" parent="1">
          <mxGeometry x="377" y="263" width="120" height="60" as="geometry" />
        </mxCell>
        <mxCell id="r4WHfZsrnxStwqEzmnqj-7" value="Apollo" style="rounded=0;whiteSpace=wrap;html=1;" vertex="1" parent="1">
          <mxGeometry x="380" y="424.5" width="120" height="60" as="geometry" />
        </mxCell>
        <mxCell id="r4WHfZsrnxStwqEzmnqj-8" value="&lt;font style=&quot;font-size: 14px;&quot;&gt;MySQL&lt;/font&gt;" style="shape=cylinder3;whiteSpace=wrap;html=1;boundedLbl=1;backgroundOutline=1;size=15;" vertex="1" parent="1">
          <mxGeometry x="407" y="65" width="60" height="80" as="geometry" />
        </mxCell>
        <mxCell id="r4WHfZsrnxStwqEzmnqj-17" value="&lt;font style=&quot;font-size: 14px;&quot;&gt;Zookeeper-1&lt;/font&gt;" style="rounded=0;whiteSpace=wrap;html=1;" vertex="1" parent="1">
          <mxGeometry x="-139" y="263" width="120" height="60" as="geometry" />
        </mxCell>
        <mxCell id="r4WHfZsrnxStwqEzmnqj-22" value="" style="shape=flexArrow;endArrow=classic;html=1;rounded=0;" edge="1" parent="1">
          <mxGeometry width="50" height="50" relative="1" as="geometry">
            <mxPoint x="438" y="247" as="sourcePoint" />
            <mxPoint x="438" y="165" as="targetPoint" />
          </mxGeometry>
        </mxCell>
        <mxCell id="r4WHfZsrnxStwqEzmnqj-23" value="" style="shape=flexArrow;endArrow=classic;html=1;rounded=0;" edge="1" parent="1">
          <mxGeometry width="50" height="50" relative="1" as="geometry">
            <mxPoint x="215" y="260" as="sourcePoint" />
            <mxPoint x="383" y="137" as="targetPoint" />
          </mxGeometry>
        </mxCell>
        <mxCell id="r4WHfZsrnxStwqEzmnqj-24" value="&lt;font style=&quot;font-size: 14px;&quot;&gt;信息持久化&lt;/font&gt;" style="edgeLabel;html=1;align=center;verticalAlign=middle;resizable=0;points=[];" vertex="1" connectable="0" parent="r4WHfZsrnxStwqEzmnqj-23">
          <mxGeometry x="0.0752" y="-5" relative="1" as="geometry">
            <mxPoint y="-1" as="offset" />
          </mxGeometry>
        </mxCell>
        <mxCell id="r4WHfZsrnxStwqEzmnqj-25" value="" style="shape=flexArrow;endArrow=classic;html=1;rounded=0;" edge="1" parent="1">
          <mxGeometry width="50" height="50" relative="1" as="geometry">
            <mxPoint x="66" y="292.5" as="sourcePoint" />
            <mxPoint x="-13" y="292.5" as="targetPoint" />
          </mxGeometry>
        </mxCell>
        <mxCell id="r4WHfZsrnxStwqEzmnqj-26" value="&lt;span style=&quot;font-size: 14px;&quot;&gt;区域注册&lt;/span&gt;" style="edgeLabel;html=1;align=center;verticalAlign=middle;resizable=0;points=[];" vertex="1" connectable="0" parent="r4WHfZsrnxStwqEzmnqj-25">
          <mxGeometry x="-0.4177" relative="1" as="geometry">
            <mxPoint x="-8" y="-20" as="offset" />
          </mxGeometry>
        </mxCell>
        <mxCell id="r4WHfZsrnxStwqEzmnqj-28" value="&lt;font style=&quot;font-size: 14px;&quot;&gt;Kafka-1&lt;/font&gt;" style="ellipse;whiteSpace=wrap;html=1;aspect=fixed;" vertex="1" parent="1">
          <mxGeometry x="162" y="549" width="80" height="80" as="geometry" />
        </mxCell>
        <mxCell id="r4WHfZsrnxStwqEzmnqj-32" value="&lt;font style=&quot;font-size: 14px;&quot;&gt;源数据源&lt;/font&gt;" style="shape=cylinder3;whiteSpace=wrap;html=1;boundedLbl=1;backgroundOutline=1;size=15;" vertex="1" parent="1">
          <mxGeometry x="-135" y="601" width="73" height="92" as="geometry" />
        </mxCell>
        <mxCell id="r4WHfZsrnxStwqEzmnqj-35" value="&lt;font style=&quot;font-size: 14px;&quot;&gt;目标数据源&lt;/font&gt;" style="shape=cylinder3;whiteSpace=wrap;html=1;boundedLbl=1;backgroundOutline=1;size=15;" vertex="1" parent="1">
          <mxGeometry x="36" y="601" width="73" height="92" as="geometry" />
        </mxCell>
        <mxCell id="r4WHfZsrnxStwqEzmnqj-36" value="" style="rounded=0;whiteSpace=wrap;html=1;" vertex="1" parent="1">
          <mxGeometry x="-153" y="393.75" width="242" height="121.5" as="geometry" />
        </mxCell>
        <mxCell id="r4WHfZsrnxStwqEzmnqj-37" value="&lt;font style=&quot;font-size: 14px;&quot;&gt;dts-worker 集群 - 1&lt;/font&gt;" style="text;html=1;align=center;verticalAlign=middle;whiteSpace=wrap;rounded=0;" vertex="1" parent="1">
          <mxGeometry x="-93" y="399" width="135" height="31" as="geometry" />
        </mxCell>
        <mxCell id="r4WHfZsrnxStwqEzmnqj-39" value="&lt;font style=&quot;font-size: 14px;&quot;&gt;dts-worker&lt;/font&gt;" style="rounded=0;whiteSpace=wrap;html=1;" vertex="1" parent="1">
          <mxGeometry x="-25" y="438.5" width="85" height="47" as="geometry" />
        </mxCell>
        <mxCell id="r4WHfZsrnxStwqEzmnqj-44" value="" style="shape=flexArrow;endArrow=classic;html=1;rounded=0;" edge="1" parent="1">
          <mxGeometry width="50" height="50" relative="1" as="geometry">
            <mxPoint x="117" y="334" as="sourcePoint" />
            <mxPoint x="75" y="382" as="targetPoint" />
          </mxGeometry>
        </mxCell>
        <mxCell id="r4WHfZsrnxStwqEzmnqj-45" value="&lt;font style=&quot;font-size: 14px;&quot;&gt;区域调度&lt;/font&gt;" style="edgeLabel;html=1;align=center;verticalAlign=middle;resizable=0;points=[];" vertex="1" connectable="0" parent="r4WHfZsrnxStwqEzmnqj-44">
          <mxGeometry x="-0.0206" y="1" relative="1" as="geometry">
            <mxPoint x="43" y="-3" as="offset" />
          </mxGeometry>
        </mxCell>
        <mxCell id="r4WHfZsrnxStwqEzmnqj-46" value="" style="shape=flexArrow;endArrow=classic;html=1;rounded=0;" edge="1" parent="1">
          <mxGeometry width="50" height="50" relative="1" as="geometry">
            <mxPoint x="-85" y="386" as="sourcePoint" />
            <mxPoint x="-85" y="330" as="targetPoint" />
          </mxGeometry>
        </mxCell>
        <mxCell id="r4WHfZsrnxStwqEzmnqj-47" value="&lt;font style=&quot;font-size: 14px;&quot;&gt;节点、任务注册&lt;/font&gt;" style="edgeLabel;html=1;align=center;verticalAlign=middle;resizable=0;points=[];" vertex="1" connectable="0" parent="r4WHfZsrnxStwqEzmnqj-46">
          <mxGeometry x="-0.2857" y="-1" relative="1" as="geometry">
            <mxPoint x="63" y="-5" as="offset" />
          </mxGeometry>
        </mxCell>
        <mxCell id="r4WHfZsrnxStwqEzmnqj-48" value="&lt;font style=&quot;font-size: 14px;&quot;&gt;dts-worker&lt;/font&gt;" style="rounded=0;whiteSpace=wrap;html=1;" vertex="1" parent="1">
          <mxGeometry x="-17" y="447" width="85" height="47" as="geometry" />
        </mxCell>
        <mxCell id="r4WHfZsrnxStwqEzmnqj-49" value="&lt;font style=&quot;font-size: 14px;&quot;&gt;dts-worker&lt;/font&gt;" style="rounded=0;whiteSpace=wrap;html=1;" vertex="1" parent="1">
          <mxGeometry x="-7" y="457" width="85" height="47" as="geometry" />
        </mxCell>
        <mxCell id="r4WHfZsrnxStwqEzmnqj-50" value="&lt;font style=&quot;font-size: 14px;&quot;&gt;dts-worker&lt;/font&gt;" style="rounded=0;whiteSpace=wrap;html=1;" vertex="1" parent="1">
          <mxGeometry x="-141" y="438.5" width="85" height="47" as="geometry" />
        </mxCell>
        <mxCell id="r4WHfZsrnxStwqEzmnqj-51" value="&lt;font style=&quot;font-size: 14px;&quot;&gt;dts-worker&lt;/font&gt;" style="rounded=0;whiteSpace=wrap;html=1;" vertex="1" parent="1">
          <mxGeometry x="-133" y="447" width="85" height="47" as="geometry" />
        </mxCell>
        <mxCell id="r4WHfZsrnxStwqEzmnqj-52" value="&lt;font style=&quot;font-size: 14px;&quot;&gt;dts-worker&lt;/font&gt;" style="rounded=0;whiteSpace=wrap;html=1;" vertex="1" parent="1">
          <mxGeometry x="-123" y="457" width="85" height="47" as="geometry" />
        </mxCell>
        <mxCell id="r4WHfZsrnxStwqEzmnqj-53" value="" style="shape=flexArrow;endArrow=classic;html=1;rounded=0;" edge="1" parent="1">
          <mxGeometry width="50" height="50" relative="1" as="geometry">
            <mxPoint x="102" y="506" as="sourcePoint" />
            <mxPoint x="155" y="550" as="targetPoint" />
          </mxGeometry>
        </mxCell>
        <mxCell id="r4WHfZsrnxStwqEzmnqj-54" value="&lt;font style=&quot;font-size: 14px;&quot;&gt;点位&lt;/font&gt;" style="edgeLabel;html=1;align=center;verticalAlign=middle;resizable=0;points=[];" vertex="1" connectable="0" parent="r4WHfZsrnxStwqEzmnqj-53">
          <mxGeometry x="-0.1228" y="1" relative="1" as="geometry">
            <mxPoint x="5" y="-25" as="offset" />
          </mxGeometry>
        </mxCell>
        <mxCell id="r4WHfZsrnxStwqEzmnqj-55" value="" style="shape=flexArrow;endArrow=classic;startArrow=classic;html=1;rounded=0;" edge="1" parent="1">
          <mxGeometry width="100" height="100" relative="1" as="geometry">
            <mxPoint x="-93" y="591" as="sourcePoint" />
            <mxPoint x="-72" y="530" as="targetPoint" />
          </mxGeometry>
        </mxCell>
        <mxCell id="r4WHfZsrnxStwqEzmnqj-57" value="&lt;font style=&quot;font-size: 14px;&quot;&gt;数据同步&lt;/font&gt;" style="text;html=1;align=center;verticalAlign=middle;whiteSpace=wrap;rounded=0;" vertex="1" parent="1">
          <mxGeometry x="-41" y="549" width="60" height="30" as="geometry" />
        </mxCell>
        <mxCell id="r4WHfZsrnxStwqEzmnqj-58" value="" style="shape=flexArrow;endArrow=classic;startArrow=classic;html=1;rounded=0;" edge="1" parent="1">
          <mxGeometry width="100" height="100" relative="1" as="geometry">
            <mxPoint x="40" y="528" as="sourcePoint" />
            <mxPoint x="60" y="591" as="targetPoint" />
          </mxGeometry>
        </mxCell>
        <mxCell id="r4WHfZsrnxStwqEzmnqj-59" value="" style="shape=flexArrow;endArrow=classic;html=1;rounded=0;" edge="1" parent="1">
          <mxGeometry width="50" height="50" relative="1" as="geometry">
            <mxPoint x="158" y="454" as="sourcePoint" />
            <mxPoint x="337" y="454" as="targetPoint" />
          </mxGeometry>
        </mxCell>
        <mxCell id="r4WHfZsrnxStwqEzmnqj-60" value="" style="shape=flexArrow;endArrow=classic;html=1;rounded=0;" edge="1" parent="1">
          <mxGeometry width="50" height="50" relative="1" as="geometry">
            <mxPoint x="216" y="327" as="sourcePoint" />
            <mxPoint x="336" y="405" as="targetPoint" />
          </mxGeometry>
        </mxCell>
        <mxCell id="r4WHfZsrnxStwqEzmnqj-61" value="&lt;font style=&quot;font-size: 15px;&quot;&gt;启动读取配置&lt;/font&gt;" style="text;html=1;align=center;verticalAlign=middle;whiteSpace=wrap;rounded=0;" vertex="1" parent="1">
          <mxGeometry x="188" y="374" width="110" height="30" as="geometry" />
        </mxCell>
        <mxCell id="r4WHfZsrnxStwqEzmnqj-62" value="&lt;font style=&quot;font-size: 15px;&quot;&gt;启动读取配置&lt;/font&gt;" style="text;html=1;align=center;verticalAlign=middle;whiteSpace=wrap;rounded=0;" vertex="1" parent="1">
          <mxGeometry x="182" y="462" width="110" height="30" as="geometry" />
        </mxCell>
        <mxCell id="r4WHfZsrnxStwqEzmnqj-64" value="" style="shape=flexArrow;endArrow=classic;html=1;rounded=0;" edge="1" parent="1">
          <mxGeometry width="50" height="50" relative="1" as="geometry">
            <mxPoint x="436.5" y="337" as="sourcePoint" />
            <mxPoint x="436.5" y="411" as="targetPoint" />
          </mxGeometry>
        </mxCell>
        <mxCell id="r4WHfZsrnxStwqEzmnqj-65" value="&lt;font style=&quot;font-size: 14px;&quot;&gt;启动读取配置&lt;/font&gt;" style="edgeLabel;html=1;align=center;verticalAlign=middle;resizable=0;points=[];" vertex="1" connectable="0" parent="r4WHfZsrnxStwqEzmnqj-64">
          <mxGeometry x="-0.1081" relative="1" as="geometry">
            <mxPoint as="offset" />
          </mxGeometry>
        </mxCell>
      </root>
    </mxGraphModel>
  </diagram>
</mxfile>
